<svg id="Layer_1" data-name="Layer 1" xmlns="http://www.w3.org/2000/svg" viewBox="0 0 322.88 138.55"><defs><style>.cls-1{fill:#727272;}</style></defs><title>saturdayFrench</title><g id="cddef2fa-96a5-46f4-a326-9a63bb6cdc6f"><g id="b3b553bf-c4f8-4a2b-8493-f07b6502499d"><g id="_9e71a292-2add-4bba-b746-ab17bc042493" data-name="9e71a292-2add-4bba-b746-ab17bc042493"><path class="cls-1" d="M26,102.94a20.49,20.49,0,0,0,5.44,7.51,22,22,0,0,0,8,4.27,32.29,32.29,0,0,0,9.46,1.39,41.89,41.89,0,0,0,7.09-.65,22,22,0,0,0,7.09-2.5,16.14,16.14,0,0,0,5.52-5.1,14.37,14.37,0,0,0,2.21-8.25,12.78,12.78,0,0,0-2.92-8.72,23,23,0,0,0-7.65-5.56,68.22,68.22,0,0,0-10.72-3.9q-6-1.67-12.14-3.71a96.06,96.06,0,0,1-12.3-4.54,40.78,40.78,0,0,1-10.72-7A32,32,0,0,1,6.71,55.55,37.14,37.14,0,0,1,3.79,40.06a39.61,39.61,0,0,1,3.7-17.71,37.89,37.89,0,0,1,9.7-12.52A39.74,39.74,0,0,1,30.75,2.41,49.67,49.67,0,0,1,45.88,0a61.47,61.47,0,0,1,17,2.32A39.55,39.55,0,0,1,77.26,9.83a36.73,36.73,0,0,1,10,13.26Q91,31.16,91,42.66H67a26.81,26.81,0,0,0-2.13-9.83,15.68,15.68,0,0,0-4.81-6.12,18.7,18.7,0,0,0-6.86-3.15,36.18,36.18,0,0,0-8.43-.93,24.9,24.9,0,0,0-6,.74A14.81,14.81,0,0,0,33.35,26a15,15,0,0,0-4,4.64,14.15,14.15,0,0,0-1.58,7A13.58,13.58,0,0,0,29,44a11.72,11.72,0,0,0,5,4.45,56.92,56.92,0,0,0,10.25,4.08q6.54,2,17.11,5.19,3.15.74,8.75,2.69A39.58,39.58,0,0,1,81.2,66.59,37.29,37.29,0,0,1,90.74,78q4,7.14,4,18.27a46.67,46.67,0,0,1-3,16.88,36.5,36.5,0,0,1-8.91,13.45,40.92,40.92,0,0,1-14.66,8.81,59.66,59.66,0,0,1-20.26,3.15,61.15,61.15,0,0,1-18-2.69,42.65,42.65,0,0,1-15.45-8.44A40.56,40.56,0,0,1,3.79,112.77Q-.15,103.87,0,91.63H24A27.91,27.91,0,0,0,26,102.94Z"/><path class="cls-1" d="M157.66,3.15l42.09,132.43h-25.7l-8.51-29.49H123.45l-8.83,29.49H89.71L132.28,3.15Zm1.42,81.24L144.89,35.8h-.32L129.91,84.39Z"/><path class="cls-1" d="M236.48,3.15l26.33,91.07h.32L288,3.15h34.84V135.58H299.7V41.73h-.32L271.8,135.58H252.72L225.13,42.66h-.32v92.92H201.64V3.15Z"/></g></g></g></svg>