<svg id="Layer_1" data-name="Layer 1" xmlns="http://www.w3.org/2000/svg" viewBox="0 0 333.24 138.55"><defs><style>.cls-1{fill:#727272;}</style></defs><title>sundayEnglish</title><g id="_1cb44634-2e6c-43a6-88bc-33764d17c787" data-name="1cb44634-2e6c-43a6-88bc-33764d17c787"><g id="_9f0083e5-e765-44db-8e80-4153dcfb85df" data-name="9f0083e5-e765-44db-8e80-4153dcfb85df"><g id="_5f077403-0213-41bd-bd7b-19d694fc6917" data-name="5f077403-0213-41bd-bd7b-19d694fc6917"><path class="cls-1" d="M29.44,102.94a20.82,20.82,0,0,0,6.15,7.51,26.13,26.13,0,0,0,9,4.27,41,41,0,0,0,10.7,1.39,53.48,53.48,0,0,0,8-.65,27.08,27.08,0,0,0,8-2.5,17.63,17.63,0,0,0,6.24-5.1A13.14,13.14,0,0,0,80,99.61a11.87,11.87,0,0,0-3.3-8.72,26.06,26.06,0,0,0-8.65-5.56A83.94,83.94,0,0,0,56,81.42q-6.78-1.67-13.74-3.71a118.11,118.11,0,0,1-13.91-4.54,47.17,47.17,0,0,1-12.13-7A32.44,32.44,0,0,1,7.59,55.55a33.42,33.42,0,0,1-3.3-15.49A35.77,35.77,0,0,1,8.48,22.35a39,39,0,0,1,11-12.52A47,47,0,0,1,34.79,2.41,63,63,0,0,1,51.92,0,78.13,78.13,0,0,1,71.1,2.32,47.05,47.05,0,0,1,87.42,9.83,37.6,37.6,0,0,1,98.75,23.09q4.19,8.07,4.19,19.57H75.82a24.24,24.24,0,0,0-2.41-9.83A16.18,16.18,0,0,0,68,26.71a22.53,22.53,0,0,0-7.76-3.15,46.1,46.1,0,0,0-9.54-.93,31.68,31.68,0,0,0-6.78.74A17.79,17.79,0,0,0,37.74,26a15.77,15.77,0,0,0-4.55,4.64,12.82,12.82,0,0,0-1.78,7A12.26,12.26,0,0,0,32.83,44q1.43,2.41,5.62,4.45a69.5,69.5,0,0,0,11.55,4q7.4,2,19.36,5.19,3.57.74,9.9,2.69a46.77,46.77,0,0,1,12.58,6.21A38.86,38.86,0,0,1,102.67,78q4.55,7.14,4.55,18.27a41.87,41.87,0,0,1-3.39,16.88A36.5,36.5,0,0,1,93.75,126.6a47.78,47.78,0,0,1-16.59,8.81,75.65,75.65,0,0,1-22.92,3.15,77.64,77.64,0,0,1-20.43-2.69,50.45,50.45,0,0,1-17.48-8.44,41.23,41.23,0,0,1-12-14.65Q-.17,103.87,0,91.63H27.12A25.09,25.09,0,0,0,29.44,102.94Z"/><path class="cls-1" d="M202.3,125.47q-14.45,13.08-40,13.08-25.87,0-40-13T108.11,85.5V3.15h28V85.5A62.1,62.1,0,0,0,137,96.08a21.88,21.88,0,0,0,3.75,9.18,20.8,20.8,0,0,0,7.94,6.49q5.08,2.5,13.65,2.5,15,0,20.69-7t5.71-21.79V3.15h28V85.5Q216.75,112.4,202.3,125.47Z"/><path class="cls-1" d="M253.5,3.15,306.66,92H307V3.15h26.22V135.58h-28l-53-88.66h-.36v88.66H225.67V3.15Z"/></g></g></g></svg>